# xmcd CD database file
#
# Track frame offsets:
#	150
#	12605
#	27723
#	43103
#	57948
#	71550
#	86790
#	100783
#	112833
#	125095
#	138015
#	151468
#	164493
#	177565
#	188838
#	201083
#	213193
#
# Disc length: 3004 seconds
#
# Revision: 0
# Processed by: cddbd v1.4PL0 Copyright (c) Steve Scherf et al.
# Submitted via: CDex 1.50Beta7
#
DISCID=f60bba11
DTITLE=Dinah Washington - The Complete Dinah Washington On Mercury, Volume 2 (1950-1952) CD2
DYEAR=1900
DGENRE=Jazz
TTITLE0=My Heart Cries For You
TTITLE1=I Apologize
TTITLE2=I Won't Cry Anymore
TTITLE3=Don't Say You're Sorry Anymore
TTITLE4=Mixed Emotions
TTITLE5=Cold, Cold Heart
TTITLE6=Baby Did You Hear
TTITLE7=New Blowtop Blues
TTITLE8=What's The Matter With Baby
TTITLE9=Don't Hold It Against Me
TTITLE10=Be Fair To Me
TTITLE11=Just One More Chance
TTITLE12=Just One More Chance
TTITLE13=Saturday Night
TTITLE14=If You Don't Think I'm Leavin'
TTITLE15=I'm A Fool To Want You
TTITLE16=I'm Crying
EXTD=
EXTT0=
EXTT1=
EXTT2=
EXTT3=
EXTT4=
EXTT5=
EXTT6=
EXTT7=
EXTT8=
EXTT9=
EXTT10=
EXTT11=
EXTT12=
EXTT13=
EXTT14=
EXTT15=
EXTT16=
PLAYORDER=
